<svg xmlns="http://www.w3.org/2000/svg" viewBox="0 0 286 286"><defs><style>.cls-1{fill:none;}.cls-2{fill:#333;fill-rule:evenodd;}</style></defs><title>logo</title><g id="Layer_2" data-name="Layer 2"><g id="Layer_1-2" data-name="Layer 1"><rect class="cls-1" width="286" height="286"/><path class="cls-2" d="M257,111.13v90.75a9.24,9.24,0,0,1-3.81,7.43,8.72,8.72,0,0,1-4.41,1.8,9.37,9.37,0,0,1-7-1.83l-26.45-26.35a75.84,75.84,0,0,1-32.5,9h-4a77.44,77.44,0,0,0,9.2-37.64,86.87,86.87,0,0,0-.75-11.55,30.49,30.49,0,0,1-8.8,1.25,29.62,29.62,0,0,1-29.65-29.65,28.62,28.62,0,0,1,8.65-20.95,10.15,10.15,0,0,1,1-.9.36.36,0,0,1-.15-.15Q137.2,75.13,108.9,75.13l-.6-.35a80.52,80.52,0,0,1,13.55-17.85q23.21-23.16,56-23.15t56,23.15Q256.4,79.47,257,111.13ZM158.22,92.07a84.61,84.61,0,0,1,6.4,5.8q19,18.94,22.41,44.45a29,29,0,0,0,12.14-7.45,29.79,29.79,0,0,0,0-41.9,29.69,29.69,0,0,0-40.95-.9Zm-20.95,61q.84,13.35-7.94,22.57a75.56,75.56,0,0,0,43,15.94c1.64.07,3.31.1,5,.1l.7.46v0a84.06,84.06,0,0,1-13.67,17.71q-21.42,21.39-51,23h-10a75.24,75.24,0,0,1-32.59-9L44.27,250.27a9.12,9.12,0,0,1-5.76,1.95,9.26,9.26,0,0,1-6.76-2.85A9,9,0,0,1,29,242.93V152.18Q29.6,120.51,52.18,98q22.93-22.89,55.28-23.2A76.7,76.7,0,0,0,98,112.57,88.78,88.78,0,0,0,99.19,127a30.78,30.78,0,0,1,8.47-1.15,28.85,28.85,0,0,1,22.76,10.52A28.48,28.48,0,0,1,137.27,153.11ZM87,176.27a28.62,28.62,0,0,0,21,8.7,28.33,28.33,0,0,0,21-8.7l.7-.7a91,91,0,0,1-8.1-7.1q-17.89-18-22-41.6A29.75,29.75,0,0,0,87,176.27Z"/></g></g></svg>